<svg width="126" height="28" viewBox="0 0 126 28" fill="none" xmlns="http://www.w3.org/2000/svg">
<path fill-rule="evenodd" clip-rule="evenodd" d="M125.591 21.5633C120.335 29.4606 112.012 27.1691 109.512 25.3749C108.448 26.0147 106.583 27.417 104.095 27.255C98.7977 26.9104 96.9006 20.2007 96.9006 20.2007C96.9387 20.2275 95.3225 20.6949 94.4491 20.6866C94.4379 22.6542 92.5188 27.3546 87.3394 27.2945C81.5275 27.2273 80.3459 19.5531 80.3459 19.5531C80.3459 19.5531 79.7676 20.2649 77.5685 20.9739C77.6792 19.4622 77.5982 27.0644 70.6324 27.1761C65.1254 27.2646 63.6389 19.4348 63.6389 19.4348C63.6389 19.4348 62.6835 20.3143 60.8321 20.6194C60.9497 19.0831 60.7584 27.2019 53.7917 27.1761C49.0837 27.1588 47.4749 22.353 47.6 21.686C47.7597 20.8359 46.0089 27.2957 41.4357 27.195C39.5485 27.1459 38.1416 25.9349 37.2588 24.3204C36.0769 25.5189 34.361 27.195 32.4361 27.195C28.9808 27.195 27.4575 24.6337 27.7155 17.3179C27.7375 16.4502 27.6668 16.109 26.6936 15.9792C26.1094 15.8928 25.5112 15.7292 24.8782 15.643C24.6754 16.243 22.9547 26.9998 17.0378 27.204C15.0528 27.2725 13.9674 25.7485 13.076 24.6174C11.7097 26.2194 9.90595 27.255 7.33642 27.255C2.98383 27.255 0.01828 24.1365 0.01828 20.2895C0.01828 16.4425 2.98383 13.3242 7.33642 13.3242C8.106 13.3242 8.32204 13.422 9.0251 13.6038C7.57923 1.93646 10.9938 0.113027 13.9808 0.113027C16.8485 0.113027 21.7476 6.01204 14.8541 20.9751C16.3846 25.4381 19.684 25.1857 21.2695 15.9982C21.5922 14.1307 20.7294 11.6105 22.0715 11.2588C24.5248 10.616 24.7851 12.5446 25.9354 12.866C27.1517 13.2056 27.8616 13.1724 29.0292 13.3885C31.0245 13.7339 31.8031 14.6838 31.56 16.7996C31.2681 19.4767 30.7574 23.3732 32.3144 23.8481C33.4372 24.1931 35.4872 22.1293 35.847 21.0001C36.2066 19.871 36.2817 19.4845 36.3137 18.6563C36.3623 16.8861 36.4234 15.5886 36.764 14.2499C36.9097 13.7319 37.0759 13.3888 37.7372 13.3654C38.2813 13.3531 39.2763 13.2079 39.7144 13.51C40.2982 13.8988 40.2252 14.2933 40.1582 15.3316C39.4792 30.1353 44.7052 22.7452 46.2634 16.8279C45.7085 10.1369 46.0895 0.235551 50.8203 0.0694879C53.2807 -0.0168743 54.3685 1.73006 54.4881 3.03399C54.8265 6.71676 52.9309 12.8172 50.4379 16.9197C49.0131 25.2907 56.6675 26.9459 57.8916 20.2642C55.8889 19.4202 53.7246 16.0044 55.4858 14.3397C56.4741 13.4055 60.5878 14.7476 60.6552 17.6748C62.6731 17.1965 62.9425 16.1867 62.9705 16.354C62.4158 9.66298 62.9302 0.235638 67.6614 0.0695734C70.1215 -0.0167888 71.2091 1.73015 71.3287 3.03407C71.6671 6.71683 69.7715 12.8173 67.2788 16.9199C65.8539 25.2907 73.5085 26.946 74.7322 20.2643C73.2495 20.0107 70.1195 16.3775 71.9255 14.3398C72.8906 13.2509 76.9893 15.5154 77.4481 17.7717C79.3866 17.2855 79.6499 16.3078 79.6777 16.4724C79.1228 9.78156 79.6373 0.354218 84.3685 0.188154C86.8286 0.101792 87.9162 1.84873 88.0358 3.15265C88.3742 6.83541 86.4786 12.936 83.9856 17.0385C82.5609 25.4095 90.2154 27.0644 91.4395 20.3827C89.4019 20.082 86.5061 16.2458 88.8367 14.2833C89.7679 13.4992 93.326 15.5346 94.1589 17.8568C95.3161 17.8173 96.0364 17.4636 96.1908 17.4279C94.3434 9.57305 95.7187 0.148361 100.808 0.0696886C103.559 0.0272078 106.248 1.38773 105.068 8.8606C103.941 15.9906 99.8909 18.9827 99.9003 19.0285C100.136 19.8827 102.214 27.0312 107.448 23.2594C107.177 22.7157 106.906 22.1603 106.754 21.4874C105.887 17.5677 107.591 13.1404 112.222 12.4249C114.875 12.0149 117.374 13.1598 117.77 15.741C118.42 19.9645 114.117 23.0233 112.48 23.6868C111.747 23.3178 119.124 27.5107 123.502 19.108C123.755 18.6282 124.061 18.6689 124.458 18.9162C124.738 19.0908 126.333 20.4299 125.591 21.5633ZM10.5025 19.2517C10.2798 18.6615 9.82268 17.361 9.66104 16.7976C8.7708 16.1114 8.13538 16 6.99268 16C4.45325 16 2.95858 18.0809 2.95858 20.3247C2.95858 22.5684 4.58691 24.6496 7.12635 24.6496C9.32707 24.6496 11.002 23.3235 11.513 21.4462C11.1554 20.7143 10.8005 20.0417 10.5025 19.2517ZM13.9186 3.20145C12.1342 3.20145 11.5289 6.97401 11.6464 10.1924C11.7503 13.0378 12.6474 15.5428 13.1128 16.6653C13.2309 16.8059 13.209 16.7144 13.3145 16.8636C16.4127 10.8472 15.1276 3.20145 13.9186 3.20145ZM51.0752 3.31996C48.769 3.08554 48.7839 11.6001 49.0702 13.51C50.2679 11.8118 52.3486 3.77721 51.0752 3.31996ZM67.9158 3.31996C65.6096 3.08554 65.6245 11.6001 65.9109 13.51C67.1086 11.8118 69.1893 3.77721 67.9158 3.31996ZM84.623 3.43842C82.3167 3.204 82.3316 11.7186 82.618 13.6287C83.8156 11.9303 85.8964 3.89564 84.623 3.43842ZM101.063 2.82153C97.4695 3.46102 98.3062 14.0789 98.852 15.9412C103.084 10.789 103.172 2.628 101.063 2.82153ZM114.529 16.0903C114.346 15.4133 113.433 15.0515 112.802 15.1407C110.998 15.359 109.248 17.3505 109.926 20.3824C110.076 21.0576 110.454 21.6792 110.448 21.6585C114.485 19.2577 114.828 17.3659 114.529 16.0903ZM38.4444 11.0218C37.9288 11.0219 37.4247 10.8864 36.996 10.6326C36.5672 10.3787 36.2329 10.0179 36.0355 9.59571C35.8381 9.17351 35.7864 8.7089 35.8871 8.26067C35.9875 7.81243 36.2359 7.40069 36.6005 7.07751C36.965 6.75433 37.4295 6.53425 37.9352 6.44507C38.441 6.3559 38.9652 6.40164 39.4416 6.57654C39.9181 6.75143 40.3252 7.04761 40.6116 7.42761C40.8981 7.80761 41.051 8.25437 41.051 8.71137C41.051 9.01476 40.9836 9.31519 40.8526 9.59549C40.7217 9.8758 40.5297 10.1305 40.2876 10.345C40.0455 10.5596 39.7582 10.7298 39.442 10.8459C39.1257 10.962 38.7868 11.0218 38.4444 11.0218Z" fill="#0D0C22"/>
</svg>
