<svg width="126" height="30" viewBox="0 0 126 30" fill="none" xmlns="http://www.w3.org/2000/svg">
<path d="M17.5022 28.0663C15.6181 28.3595 13.7008 28.4474 11.7175 28.6816L5.66819 12.9786V29.3555C3.78409 29.5313 2.06524 29.7656 0.280212 30V0H5.3048L12.1802 17.0217V0H17.5022V28.0663ZM27.9147 10.9863C29.9643 10.9863 33.1046 10.8984 34.9887 10.8984V15.5858C32.6416 15.5858 29.8981 15.5858 27.9147 15.6737V22.6465C31.0221 22.4708 34.1293 22.2362 37.2694 22.1483V26.6597L22.6257 27.6854V0H37.2694V4.68751H27.9147V10.9863ZM56.9375 4.68762H51.4503V26.2501C49.6653 26.2501 47.8803 26.2501 46.1616 26.3085V4.68762H40.6745V0H56.9377L56.9375 4.68762ZM65.5319 10.6642H72.7712V15.3516H65.5319V25.9864H60.3418V0H75.1181V4.68751H65.5319V10.6642ZM83.7125 21.8848C86.7206 21.9432 89.7616 22.1486 92.7037 22.2948V26.9238C87.9768 26.66 83.2498 26.3966 78.4237 26.3085V0H83.7125V21.8848ZM97.1661 27.2461C98.852 27.3341 100.637 27.422 102.356 27.5975V0H97.1661V27.2461ZM125.528 0L118.818 14.2676L125.528 30C123.544 29.7656 121.561 29.4433 119.578 29.1503L115.777 20.4786L111.909 28.4474C109.992 28.1542 108.141 28.0663 106.224 27.8319L113.033 14.0917L106.885 0H112.57L116.041 7.88088L119.743 0H125.528V0Z" fill="#D81F26"/>
</svg>
