<svg width="146" height="35" viewBox="0 0 146 35" fill="none" xmlns="http://www.w3.org/2000/svg">
<path d="M51.5251 28.7749V14.2199H51.8177L63.7717 28.7749H67.5334V7.40064H63.3537V21.919H63.0611L51.1072 7.40064H47.3454V28.7749H51.5251ZM79.3619 29.1049C84.8792 29.1049 88.2647 25.9519 88.2647 20.6725C88.2647 15.4297 84.8792 12.2401 79.3619 12.2401C73.8865 12.2401 70.4592 15.4297 70.4592 20.6725C70.501 25.9519 73.8447 29.1049 79.3619 29.1049ZM79.3619 26.0252C76.4361 26.0252 74.7643 24.0821 74.7643 20.6725C74.7643 17.2995 76.4361 15.3198 79.3619 15.3198C82.2877 15.3198 83.9596 17.2995 83.9596 20.6725C83.9596 24.0821 82.2877 26.0252 79.3619 26.0252ZM92.0683 8.6105V12.68H89.1425V15.6131H92.0683V24.4487C92.0683 27.6017 93.7401 28.8483 98.0034 28.8483C98.7976 28.8483 99.5917 28.7749 100.219 28.6649V25.8053C99.7171 25.8419 99.3827 25.8786 98.7976 25.8786C97.0421 25.8786 96.2479 25.182 96.2479 23.5688V15.6131H100.219V12.68H96.2479V8.6105H92.0683ZM102.726 28.7749H106.906V12.5701H102.726V28.7749ZM104.816 9.89369C106.196 9.89369 107.324 8.9038 107.324 7.69393C107.324 6.44741 106.196 5.45752 104.816 5.45752C103.437 5.45752 102.309 6.44741 102.309 7.69393C102.309 8.9038 103.437 9.89369 104.816 9.89369ZM118.359 29.1049C123.876 29.1049 127.261 25.9519 127.261 20.6725C127.261 15.4297 123.876 12.2401 118.359 12.2401C112.883 12.2401 109.456 15.4297 109.456 20.6725C109.456 25.9519 112.8 29.1049 118.359 29.1049ZM118.359 26.0252C115.433 26.0252 113.761 24.0821 113.761 20.6725C113.761 17.2995 115.433 15.3198 118.359 15.3198C121.243 15.3198 122.956 17.2995 122.956 20.6725C122.914 24.0821 121.243 26.0252 118.359 26.0252ZM129.727 28.7749H133.907V19.3526C133.907 16.9696 135.495 15.4664 137.961 15.4664C140.511 15.4664 141.681 16.7129 141.681 19.1693V28.7749H145.861V18.2894C145.861 14.4032 143.604 12.2401 139.508 12.2401C136.749 12.2401 134.91 13.34 134.032 15.1731H133.74V12.5701H129.686C129.727 12.5701 129.727 28.7749 129.727 28.7749Z" fill="black"/>
<path fill-rule="evenodd" clip-rule="evenodd" d="M7.26924 6.03259C8.48575 6.90239 8.92576 6.83372 11.2035 6.69638L32.6606 5.55191C33.1265 5.55191 32.7383 5.1399 32.583 5.09412L29.0111 2.82806C28.3381 2.37028 27.4063 1.82093 25.6722 1.95826L4.91388 3.30874C4.16327 3.37741 4.00797 3.72075 4.31857 3.97254L7.26924 6.03259ZM8.5634 10.4502V30.4098C8.5634 31.4857 9.15872 31.8748 10.5305 31.8061L34.1101 30.593C35.4819 30.5243 35.6372 29.7918 35.6372 28.922V9.09977C35.6372 8.22997 35.2489 7.74929 34.4207 7.81796L9.77991 9.09977C8.874 9.16844 8.5634 9.58045 8.5634 10.4502ZM31.8323 11.5261C31.9876 12.1212 31.8323 12.7392 31.1594 12.8079L30.0205 13.0139V27.7547C29.037 28.2125 28.1311 28.4871 27.3546 28.4871C26.1381 28.4871 25.8275 28.1438 24.9215 27.1367L17.4931 16.8135V26.7933L19.8485 27.2511C19.8485 27.2511 19.8485 28.4642 17.959 28.4642L12.7306 28.7389C12.5753 28.4642 12.7306 27.8005 13.2483 27.6631L14.6201 27.3198V14.1355L12.7306 13.9981C12.5753 13.403 12.9635 12.5332 14.0247 12.4645L19.6414 12.1212L27.3804 22.5588V13.3343L25.4133 13.1283C25.258 12.3959 25.8792 11.8465 26.6298 11.7778L31.8323 11.5261ZM3.17971 1.47759L24.7921 0.0813291C27.4322 -0.124676 28.1311 0.0126612 29.7876 1.08847L36.6725 5.36879C37.8114 6.10125 38.1996 6.30726 38.1996 7.10839V30.6159C38.1996 32.0808 37.6043 32.9506 35.4819 33.0879L10.4011 34.4384C8.79635 34.5071 8.04574 34.3011 7.21748 33.3626L2.1185 27.5258C1.21259 26.45 0.824341 25.6488 0.824341 24.7104V3.81231C0.824341 2.59917 1.44554 1.61492 3.17971 1.47759Z" fill="black"/>
</svg>
