<svg width="111" height="22" viewBox="0 0 111 22" fill="none" xmlns="http://www.w3.org/2000/svg">
<path fill-rule="evenodd" clip-rule="evenodd" d="M90.3603 6.59723C90.7826 7.24286 90.9207 7.97743 90.9663 8.80324L91.0263 9.90393V17.6007L91.0875 18.7025C91.21 20.502 92.7073 21.8325 94.7533 21.9457L95.99 22V9.90393L96.0512 8.80324C96.1021 7.98667 96.2389 7.23824 96.6676 6.58799C97.1045 5.92103 97.7317 5.36767 98.4862 4.98348C99.2406 4.59928 100.096 4.39777 100.966 4.39918C101.836 4.40058 102.691 4.60485 103.444 4.99148C104.196 5.37811 104.821 5.93348 105.255 6.60185C105.678 7.24748 105.809 7.99591 105.86 8.80324L105.921 9.90046V17.6007L105.983 18.7025C106.11 20.5112 107.596 21.8418 109.648 21.9457L110.885 22V8.80324C110.885 6.46969 109.839 4.23166 107.978 2.58127C106.117 0.930875 103.592 0.00323181 100.959 0.00231305C99.5497 0.000995875 98.1564 0.266231 96.8721 0.780298C95.5878 1.29437 94.442 2.04543 93.5114 2.98331C92.5803 2.0458 91.4345 1.29492 90.1503 0.780697C88.8661 0.266477 87.473 0.000728203 86.0638 0.00115785C84.0022 0.00115785 82.0892 0.555547 80.5045 1.51302C79.5376 0.556701 77.3744 0.00115785 76.1325 0.00115785V22L77.3744 21.9457C79.4516 21.8244 80.9528 20.5297 81.0336 18.7025L81.1001 17.6007V9.90393L81.1613 8.80324C81.2135 7.97281 81.3438 7.24286 81.7673 6.59261C82.2046 5.92606 82.8314 5.37284 83.5854 4.98817C84.3393 4.60351 85.1939 4.40086 86.0638 4.40046C86.9344 4.40063 87.7897 4.60368 88.5438 4.98925C89.2979 5.37482 89.9244 5.92935 90.3603 6.59723ZM5.39049 21.9469L6.6324 22H25.248L25.1868 20.9028C25.0187 19.0941 23.5735 17.7728 21.5262 17.655L20.2843 17.6007H9.11622L24.0061 4.39931L23.9449 3.30324C23.8484 1.47606 22.342 0.155925 20.2843 0.0554414L19.0424 0.00577766L0.426758 0.00115785L0.488006 1.10185C0.650901 2.89322 2.11695 4.24223 4.14728 4.34618L5.39049 4.40046H16.5586L1.66867 17.6018L1.72992 18.7025C1.85241 20.5159 3.32889 21.8291 5.39049 21.9457V21.9469ZM71.2599 3.22123C72.4126 4.2426 73.3269 5.45521 73.9508 6.7898C74.5746 8.1244 74.8957 9.55484 74.8957 10.9994C74.8957 12.444 74.5746 13.8744 73.9508 15.209C73.3269 16.5436 72.4126 17.7562 71.2599 18.7776C68.9312 20.8399 65.7739 21.9983 62.4819 21.9983C59.1899 21.9983 56.0325 20.8399 53.7038 18.7776C48.8573 14.4823 48.8573 7.51659 53.7038 3.22123C54.8554 2.20021 56.2226 1.39022 57.7274 0.837517C59.2322 0.284816 60.8451 0.000228005 62.474 2.65159e-06C64.1056 -0.00100129 65.7214 0.283085 67.2289 0.836013C68.7365 1.38894 70.1063 2.19986 71.2599 3.22239V3.22123ZM67.7479 6.33621C69.1439 7.57436 69.928 9.25311 69.928 11.0035C69.928 12.7538 69.1439 14.4326 67.7479 15.6707C66.3509 16.908 64.4568 17.6029 62.4819 17.6029C60.5069 17.6029 58.6128 16.908 57.2158 15.6707C55.8198 14.4326 55.0357 12.7538 55.0357 11.0035C55.0357 9.25311 55.8198 7.57436 57.2158 6.33621C58.6128 5.09898 60.5069 4.404 62.4819 4.404C64.4568 4.404 66.3509 5.09898 67.7479 6.33621ZM36.4265 2.65159e-06C38.0555 0.000379687 39.6685 0.28515 41.1733 0.83805C42.6781 1.39095 44.0453 2.20115 45.1968 3.22239C50.0445 7.51659 50.0445 14.4834 45.1968 18.7776C42.868 20.8399 39.7107 21.9983 36.4187 21.9983C33.1267 21.9983 29.9694 20.8399 27.6406 18.7776C22.7942 14.4823 22.7942 7.51659 27.6406 3.22123C28.7922 2.20021 30.1595 1.39022 31.6643 0.837517C33.1691 0.284816 34.782 0.000228005 36.4109 2.65159e-06H36.4265ZM41.6848 6.3339C43.0811 7.5721 43.8655 9.25109 43.8655 11.0017C43.8655 12.7524 43.0811 14.4314 41.6848 15.6696C40.2877 16.9068 38.3936 17.6018 36.4187 17.6018C34.4438 17.6018 32.5496 16.9068 31.1526 15.6696C29.7567 14.4314 28.9725 12.7527 28.9725 11.0023C28.9725 9.25195 29.7567 7.57321 31.1526 6.33505C32.5496 5.09783 34.4438 4.40284 36.4187 4.40284C38.3936 4.40284 40.2877 5.09783 41.6848 6.33505V6.3339Z" fill="#2D8CFF"/>
</svg>
